<svg
   xmlns="http://www.w3.org/2000/svg"
   width="74"
   height="26.589993">
  <path
     d="m 22.14061,1.0251743 4.062,7.0627001 c -7.394,3.6268996 -12.406,10.7279996 -12.406,18.8749996 l 23.656,0 23.656,0 c 0,-8.1468 -5.012,-15.248 -12.406,-18.8749996 l 4.063,-7.0626001 c 0,0 0.19231,-0.37508995 -0.17225,-0.58568995 -0.365,-0.21059 -0.61,0.14869 -0.61,0.14869 l -4.125,7.12480005 c -3.141,-1.3979 -6.6721,-2.1875 -10.406,-2.1875 -3.7341,0 -7.2653,0.7896 -10.406,2.1875 l -4.125,-7.12480005 c 0,0 -0.23006,-0.35939 -0.59737,-0.14971 -0.368,0.20967 -0.184,0.58670995 -0.184,0.58670995 l 6.2e-4,-10e-5 z m 4.062,13.6799997 c 1.2395,0 -11.892136,-4.242293 2.25,2.25 1.126469,0.517133 -1.0105,2.2188 -2.25,2.2188 -1.2395,0 -2.25,-0.97928 -2.25,-2.2188 0,-1.23952 1.0105,-2.25 2.25,-2.25 l 0,0 z m 22.5,0 c 1.2395,0 2.25,1.0105 2.25,2.25 -1e-5,1.2395 -1.0105,2.2188 -2.25,2.2188 -1.2395,0 -3.366265,-1.679947 -2.25,-2.2188 17.913372,-8.6473049 1.0105,-2.25 2.25,-2.25 l 0,0 z"
     style="fill:#a4c639" />
</svg>
